<?xml version="1.0" standalone="no"?><!DOCTYPE svg PUBLIC "-//W3C//DTD SVG 1.1//EN" "http://www.w3.org/Graphics/SVG/1.1/DTD/svg11.dtd"><svg t="1589211775359" class="icon" viewBox="0 0 1024 1024" version="1.1" xmlns="http://www.w3.org/2000/svg" p-id="10343" xmlns:xlink="http://www.w3.org/1999/xlink" width="200" height="200"><defs><style type="text/css"></style></defs><path d="M800 32h-576a128 128 0 0 0-128 128v704a128 128 0 0 0 128 128h576a128 128 0 0 0 128-128v-704a128 128 0 0 0-128-128z m64 832a64 64 0 0 1-64 64h-576a64 64 0 0 1-64-64v-704a64 64 0 0 1 64-64h576a64 64 0 0 1 64 64v704z" p-id="10344" fill="#FF6633"></path><path d="M736 736h-448a32 32 0 0 0 0 64h448a32 32 0 0 0 0-64zM736 576h-448a32 32 0 0 0 0 64h448a32 32 0 0 0 0-64zM618.432 432.384c14.144-23.616 21.184-52.48 21.184-86.592 0-13.44-1.664-27.648-4.992-42.432a111.616 111.616 0 0 0-18.88-41.344 87.232 87.232 0 0 0-45.12-32.576 144.768 144.768 0 0 0-40.96-5.568H383.616v256.384h146.048c40 0 69.568-15.936 88.768-47.872z m-170.176-16.64V288.32h75.008c21.184 0 35.392 5.312 42.496 15.936 7.04 10.688 10.624 25.92 10.624 45.824 0 14.4-2.368 26.816-7.104 37.248-8.64 19.008-24 28.416-46.016 28.416H448.256z" p-id="10345" fill="#FF6633"></path></svg>