<?xml version="1.0" standalone="no"?><!DOCTYPE svg PUBLIC "-//W3C//DTD SVG 1.1//EN" "http://www.w3.org/Graphics/SVG/1.1/DTD/svg11.dtd"><svg t="1589868724805" class="icon" viewBox="0 0 1024 1024" version="1.1" xmlns="http://www.w3.org/2000/svg" p-id="2682" xmlns:xlink="http://www.w3.org/1999/xlink" width="200" height="200"><defs><style type="text/css"></style></defs><path d="M512 568.889c-96.711 0-170.667-73.956-170.667-170.667S415.29 227.556 512 227.556s170.667 73.955 170.667 170.666S608.71 568.89 512 568.89zM512 512c62.578 0 113.778-51.2 113.778-113.778S574.578 284.444 512 284.444s-113.778 51.2-113.778 113.778S449.422 512 512 512z" fill="#f2f2f2" p-id="2683"></path><path d="M512 967.111C244.622 750.933 113.778 563.2 113.778 398.222 113.778 153.6 301.51 0 512 0s398.222 153.6 398.222 398.222c0 164.978-130.844 352.711-398.222 568.89z m341.333-568.889c0-199.11-147.91-341.333-341.333-341.333S170.667 199.11 170.667 398.222c0 136.534 113.777 301.511 341.333 494.934 227.556-193.423 341.333-358.4 341.333-494.934z" fill="#f2f2f2" p-id="2684"></path></svg>