<?xml version="1.0" standalone="no"?><!DOCTYPE svg PUBLIC "-//W3C//DTD SVG 1.1//EN" "http://www.w3.org/Graphics/SVG/1.1/DTD/svg11.dtd"><svg t="1589464532160" class="icon" viewBox="0 0 1024 1024" version="1.1" xmlns="http://www.w3.org/2000/svg" p-id="2583" xmlns:xlink="http://www.w3.org/1999/xlink" width="200" height="200"><defs><style type="text/css"></style></defs><path d="M945.15 959H122.57c-19.74 0-34.92-15.2-34.92-33.93V224c0-18.73 15.18-33.93 34.92-33.93h822.58c17.74 0 32.92 15.2 32.92 33.93v701.1c0 18.74-15.18 33.9-32.92 33.9zM149.5 891.19h767.72V257.93H149.5z" fill="#FF6633" p-id="2584"></path><path d="M922.53 450.48h-800c-19.74 0-34.92-15.2-34.92-33.93s15.18-33.92 34.92-33.92h800c17.74 0 32.92 15.19 32.92 33.92s-15.18 33.93-32.92 33.93zM373.74 319.78a33.94 33.94 0 0 1-33.93-33.93V98.92a33.93 33.93 0 0 1 67.85 0v186.93a33.93 33.93 0 0 1-33.92 33.93zM696 319.78a33.93 33.93 0 0 1-33.92-33.93V98.92a33.93 33.93 0 0 1 67.85 0v186.93A33.94 33.94 0 0 1 696 319.78z" fill="#FF6633" p-id="2585"></path><path d="M284.32 645.12l-61.75-10.91q7.69-29.09 29.59-44.58t62-15.49q46 0 66.56 16.92t20.54 42.52a47.06 47.06 0 0 1-8.34 27.19q-8.36 12.18-25.19 21.35 13.63 3.32 20.85 7.74a50.41 50.41 0 0 1 18.21 18.74q6.5 11.61 6.49 27.74a76.44 76.44 0 0 1-10.74 38.81 71.6 71.6 0 0 1-31 28.62q-20.2 10-53.09 10-32.09 0-50.6-7.43a75.53 75.53 0 0 1-30.48-21.73q-11.94-14.31-18.36-36l65.28-8.54q3.84 19.46 11.95 27t20.61 7.51a28.52 28.52 0 0 0 21.89-9.49q8.75-9.48 8.74-25.29 0-16.12-8.42-25t-22.82-8.8q-7.71 0-21.18 3.79l3.37-46a62.86 62.86 0 0 0 8.5 0.79q12.84 0 21.42-8.07t8.58-19.12q0-10.59-6.42-16.92t-17.64-6.32q-11.55 0-18.77 6.87t-9.78 24.1zM629.17 630.26l-65 7.91q-2.58-13.44-8.59-19a21.08 21.08 0 0 0-14.83-5.54q-15.88 0-24.7 15.81-6.42 11.38-9.47 48.69 11.71-11.68 24.06-17.31t28.55-5.61q31.44 0 53.17 22.13t21.74 56.12a82.14 82.14 0 0 1-11 41.9 71.25 71.25 0 0 1-30.47 28.69q-19.5 9.72-48.84 9.72-35.3 0-56.62-11.85t-34.09-37.87q-12.75-26-12.75-68.84 0-62.76 26.79-91.93t74.26-29.17q28.07 0 44.35 6.4a68.47 68.47 0 0 1 27 18.74q10.82 12.36 16.44 31.01z m-120.3 103.23q0 18.82 9.62 29.49t23.58 10.67a27.71 27.71 0 0 0 21.49-9.65q8.67-9.64 8.67-28.78 0-19.59-9-29.87A28.43 28.43 0 0 0 541 695.08a29.9 29.9 0 0 0-22.86 10q-9.27 9.92-9.27 28.41zM685.62 578.09h155.11v51.38H735.67l-5.62 34.78a113.86 113.86 0 0 1 21.58-7.59 91.5 91.5 0 0 1 21.09-2.53q35.28 0 57.26 21t22 53a89 89 0 0 1-11.3 43.16 76.24 76.24 0 0 1-32.08 31.62q-20.77 10.9-53.17 10.9-23.26 0-39.86-4.34t-28.23-13A77.61 77.61 0 0 1 668.46 777q-7.22-10.9-12-27.19l66.08-7.12q2.41 15.66 11.23 23.8a29.92 29.92 0 0 0 21 8.14 28.62 28.62 0 0 0 22.54-10.2q8.9-10.2 8.9-30.43 0-20.72-9-30.35t-23.9-9.65a39.11 39.11 0 0 0-18.31 4.56q-6.59 3.32-14.44 12l-55.66-7.9z" fill="#FF6633" p-id="2586"></path></svg>