<?xml version="1.0" standalone="no"?><!DOCTYPE svg PUBLIC "-//W3C//DTD SVG 1.1//EN" "http://www.w3.org/Graphics/SVG/1.1/DTD/svg11.dtd"><svg t="1588062489419" class="icon" viewBox="0 0 1160 1024" version="1.1" xmlns="http://www.w3.org/2000/svg" p-id="4993" xmlns:xlink="http://www.w3.org/1999/xlink" width="226.5625" height="200"><defs><style type="text/css"></style></defs><path d="M231.141408 415.795599a34.079838 34.079838 0 0 0-26.042013 56.116424l220.32541 260.730314a34.133783 34.133783 0 1 0 52.137971-44.059687L257.250853 427.852336a34.120297 34.120297 0 0 0-26.109445-12.056737z" p-id="4994" fill="#13227a"></path><path d="M580.274309 1024a95.941419 95.941419 0 0 1-71.248034-31.908546c-130.992269-145.813694-258.666913-294.971987-379.463552-443.307616C55.80624 458.263904-7.835531 380.070434 0.795691 277.938811 15.455281 105.462735 191.262469-6.392498 339.490208 0.296698c102.495753 4.909007 176.940036 61.53791 221.296422 108.146506a26.972566 26.972566 0 0 0 38.988844 0C644.13186 61.834609 718.549171 5.205705 821.071896 0.296698c148.982971-6.743142 324.034927 105.193009 338.694517 277.642113 8.658194 102.131623-55.024036 180.325093-128.780518 270.858513-51.558061 63.385531-104.774934 127.270055-158.16713 190.156593a34.137829 34.137829 0 1 1-52.030081-44.208036 11892.433826 11892.433826 0 0 0 157.22309-189.064205c74.417311-91.356083 119.70425-150.938482 113.675882-221.984222-11.382423-133.837875-149.927011-221.444771-267.392538-215.200621-79.933201 3.830104-139.353765 49.440714-175.105902 87.013499-36.601773 38.408935-101.322446 38.408935-137.88376 0-35.779109-37.572785-95.186187-83.183395-175.132874-87.013499C219.691554 62.697731 80.162468 149.886552 68.780045 283.697454c-5.98791 71.018768 39.366461 130.628139 113.71634 221.970736 120.122325 147.49948 247.055223 295.808137 377.332719 440.812654a27.876147 27.876147 0 0 0 40.903897 0q46.972725-52.28632 90.452501-101.821439a34.133783 34.133783 0 0 1 51.247877 45.0307q-43.736017 49.804844-90.978467 102.401349a95.927933 95.927933 0 0 1-71.180603 31.908546z" p-id="4995" fill="#13227a"></path></svg>