<?xml version="1.0" standalone="no"?><!DOCTYPE svg PUBLIC "-//W3C//DTD SVG 1.1//EN" "http://www.w3.org/Graphics/SVG/1.1/DTD/svg11.dtd"><svg t="1588062269312" class="icon" viewBox="0 0 1024 1024" version="1.1" xmlns="http://www.w3.org/2000/svg" p-id="3083" xmlns:xlink="http://www.w3.org/1999/xlink" width="200" height="200"><defs><style type="text/css"></style></defs><path d="M868.519 445.735L549.715 768.292l-228.24-230.917 318.798-322.548c1.088-1.089 2.17-1.082 3.245-0.01l225 227.65c0.532 0.543 0.65 1.185 0.65 1.638 0 0.445-0.118 1.084-0.65 1.63zM428.094 823.403c-0.168 0.04-0.55 0-0.306 0.256L267.089 661.157c-0.078-0.165-0.102-0.586-0.31-0.244l50.922-79.907 188.904 191.117-78.511 51.28z m-84.957-4.258l-28.832-0.827-57.095-57.765 30.652-31.013 71.924 72.767-16.649 16.838z m378.038-625.127L889.092 363.91c3.81 3.854 3.81 10.372-0.007 14.232l-18.622 18.84-181.98-184.121 18.623-18.843c3.808-3.854 10.26-3.854 14.069 0z m191.368 146.165L744.624 170.289c-16.8-17.01-44.165-17.01-60.968 0l-18.81 19.035c-6.407-5.55-14.395-8.718-22.944-8.718-9.478 0-18.385 3.724-25.07 10.486L274.578 537.375l19.133 19.359-54.813 86.004c-8.226 12.915-6.335 30.854 4.404 41.713l21.111 21.36-54.102 54.742 89.873 90.928 56.299 1.613 26.751-27.06 21.114 21.358c6.256 6.338 14.886 9.627 23.52 9.627 6.192 0 12.391-1.69 17.716-5.18l85.003-55.452 19.128 19.355 342.253-346.28c6.685-6.764 10.365-15.777 10.365-25.373-0.004-8.637-3.134-16.71-8.61-23.187l18.813-19.033c16.81-17.006 16.815-44.678 0.007-61.686z" fill="#13227a" p-id="3084"></path></svg>