<?xml version="1.0" standalone="no"?><!DOCTYPE svg PUBLIC "-//W3C//DTD SVG 1.1//EN" "http://www.w3.org/Graphics/SVG/1.1/DTD/svg11.dtd"><svg t="1587999259135" class="icon" viewBox="0 0 1024 1024" version="1.1" xmlns="http://www.w3.org/2000/svg" p-id="2025" xmlns:xlink="http://www.w3.org/1999/xlink" width="200" height="200"><defs><style type="text/css"></style></defs><path d="M323.956364 420.026182h-46.545455V243.2c0-121.856 99.141818-221.021091 221.021091-221.021091s221.021091 99.141818 221.021091 221.021091V418.909091h-46.545455v-175.709091c0-96.209455-78.266182-174.475636-174.475636-174.475636S323.956364 146.990545 323.956364 243.2v176.826182z" p-id="2026" fill="#13227a"></path><path d="M741.12 968.610909H255.767273c-64.162909 0-116.363636-52.200727-116.363637-116.363636V512c0-64.162909 52.200727-116.363636 116.363637-116.363636h485.352727c64.162909 0 116.363636 52.200727 116.363636 116.363636v340.247273c0 64.162909-52.200727 116.363636-116.363636 116.363636zM255.767273 442.181818c-38.493091 0-69.818182 31.325091-69.818182 69.818182v340.247273c0 38.493091 31.325091 69.818182 69.818182 69.818182h485.352727c38.493091 0 69.818182-31.325091 69.818182-69.818182V512c0-38.493091-31.325091-69.818182-69.818182-69.818182H255.767273z" p-id="2027" fill="#13227a"></path><path d="M498.432 747.589818a21.201455 21.201455 0 0 1-21.131636-21.131636v-88.645818c0-11.613091 9.518545-21.131636 21.131636-21.131637 11.613091 0 21.131636 9.518545 21.131636 21.131637v88.645818a21.178182 21.178182 0 0 1-21.131636 21.131636z" p-id="2028" fill="#13227a"></path></svg>