<?xml version="1.0" standalone="no"?><!DOCTYPE svg PUBLIC "-//W3C//DTD SVG 1.1//EN" "http://www.w3.org/Graphics/SVG/1.1/DTD/svg11.dtd"><svg t="1588236513935" class="icon" viewBox="0 0 1024 1024" version="1.1" xmlns="http://www.w3.org/2000/svg" p-id="3424" xmlns:xlink="http://www.w3.org/1999/xlink" width="200" height="200"><defs><style type="text/css"></style></defs><path d="M684.8 328.533333h-35.2v25.6h35.2v-25.6z m-36.266667 73.6h25.6c3.2-8.533333 6.4-17.066667 7.466667-26.666666h-33.066667v26.666666z m213.333334-259.2H140.8c-39.466667 0-70.4 25.6-70.4 56.533334v458.666666c0 16 8.533333 30.933333 21.333333 40.533334 13.866667 10.666667 32 16 49.066667 16 12.8 0 24.533333-3.2 36.266667-8.533334s23.466667-7.466667 36.266666-7.466666c12.8 0 24.533333 2.133333 36.266667 7.466666l71.466667 33.066667c11.733333 5.333333 23.466667 7.466667 36.266666 7.466667 12.8 0 24.533333-2.133333 36.266667-7.466667l71.466667-33.066667c11.733333-5.333333 23.466667-7.466667 36.266666-7.466666h1.066667c-1.066667-8.533333-1.066667-16-1.066667-23.466667 0-69.333333 28.8-131.2 74.666667-176v-52.266667h-32c-1.066667 37.333333-7.466667 74.666667-19.2 109.866667-7.466667-4.266667-16-6.4-24.533333-8.533333 14.933333-48 21.333333-98.133333 19.2-149.333334V284.8H544v74.666667h22.4v-81.066667h23.466667v81.066667h20.266666V384H544V423.466667h55.466667v55.466666c7.466667-6.4 16-11.733333 24.533333-16-2.133333-1.066667-3.2-2.133333-4.266667-4.266666 16-8.533333 29.866667-20.266667 40.533334-34.133334h-37.333334v-117.333333h44.8c3.2-9.6 5.333333-18.133333 7.466667-27.733333l32 3.2c-3.2 8.533333-6.4 17.066667-10.666667 24.533333h72.533334v117.333333h-76.8c-2.133333 4.266667-5.333333 8.533333-8.533334 12.8 5.333333-1.066667 10.666667-3.2 17.066667-4.266666v-4.266667h26.666667c7.466667-1.066667 13.866667-1.066667 21.333333-1.066667 73.6 0 138.666667 32 184.533333 83.2V199.466667c-1.066667-30.933333-32-56.533333-71.466666-56.533334zM492.8 500.266667h-103.466667V554.666667h-29.866666v-54.4H227.2v-27.733334h132.266667v-39.466666h-66.133334c-11.733333-1.066667-22.4 0-33.066666 4.266666-3.2-9.6-6.4-19.2-10.666667-28.8 7.466667-2.133333 13.866667-9.6 21.333333-23.466666 7.466667-11.733333 14.933333-24.533333 21.333334-37.333334h-59.733334v-26.666666h72.533334c6.4-14.933333 12.8-29.866667 17.066666-44.8l32 8.533333c-4.266667 11.733333-9.6 24.533333-16 36.266667h149.333334v26.666666H325.333333c-10.666667 20.266667-22.4 39.466667-35.2 58.666667h69.333334v-42.666667h29.866666v42.666667h77.866667v26.666667h-77.866667v39.466666h103.466667v27.733334z m216.533333-171.733334v25.6h32v-25.6h-32z m-7.466666 73.6h40.533333v-26.666666h-34.133333c-1.066667 8.533333-3.2 18.133333-6.4 26.666666z" p-id="3425" fill="#13227a"></path><path d="M748.8 469.333333c-113.066667 0-205.866667 91.733333-205.866667 205.866667 0 113.066667 91.733333 205.866667 205.866667 205.866667 113.066667 0 205.866667-91.733333 205.866667-205.866667C953.6 561.066667 861.866667 469.333333 748.8 469.333333z m100.266667 155.733334c-32 43.733333-64 87.466667-97.066667 130.133333-6.4 9.6-22.4 16-33.066667 7.466667-23.466667-16-45.866667-32-69.333333-48-10.666667-7.466667-16-19.2-8.533333-30.933334 6.4-9.6 22.4-14.933333 33.066666-7.466666l51.2 35.2c26.666667-36.266667 54.4-73.6 81.066667-109.866667 18.133333-23.466667 60.8-1.066667 42.666667 23.466667z m0 0" p-id="3426" fill="#13227a"></path></svg>