<?xml version="1.0" standalone="no"?><!DOCTYPE svg PUBLIC "-//W3C//DTD SVG 1.1//EN" "http://www.w3.org/Graphics/SVG/1.1/DTD/svg11.dtd"><svg t="1588236136827" class="icon" viewBox="0 0 1024 1024" version="1.1" xmlns="http://www.w3.org/2000/svg" p-id="2424" xmlns:xlink="http://www.w3.org/1999/xlink" width="200" height="200"><defs><style type="text/css"></style></defs><path d="M342.186667 956.586667c-16.5888 0-30.976-5.9904-42.786134-17.800534S281.6 912.5888 281.6 896s5.9904-30.958933 17.800533-42.786133 26.197333-17.800533 42.786134-17.800534 30.976 5.9904 42.786133 17.800534S402.773333 879.4112 402.773333 896s-5.9904 30.958933-17.800533 42.786133-26.2144 17.800533-42.786133 17.800534z m0-87.04c-7.406933 0-13.329067 2.491733-18.653867 7.799466s-7.799467 11.246933-7.799467 18.653867 2.474667 13.329067 7.799467 18.653867c10.6496 10.632533 26.658133 10.615467 37.307733 0 5.3248-5.3248 7.799467-11.246933 7.799467-18.653867s-2.474667-13.329067-7.799467-18.653867-11.246933-7.799467-18.653866-7.799466zM682.666667 955.733333a58.606933 58.606933 0 0 1-42.786134-17.800533c-11.246933-11.2128-16.9472-25.326933-16.9472-41.9328 0-16.384 5.563733-30.634667 16.554667-42.376533C652.032 841.8304 666.282667 836.266667 682.666667 836.266667c16.605867 0 30.72 5.700267 41.949866 16.964266A58.555733 58.555733 0 0 1 742.4 896c0 16.571733-6.2976 31.214933-18.210133 42.3424C713.8816 949.435733 699.2384 955.733333 682.666667 955.733333z m0-85.333333c-7.645867 0-13.704533 2.338133-19.0464 7.355733-4.215467 4.539733-6.5536 10.5984-6.5536 18.244267 0 7.424 2.2016 13.073067 6.929066 17.783467 5.341867 5.3248 11.264 7.816533 18.670934 7.816533 7.2704 0 12.629333-2.286933 17.390933-7.389867 5.922133-5.5808 8.209067-10.939733 8.209067-18.210133 0-7.406933-2.491733-13.329067-7.799467-18.653867C695.739733 872.6016 690.090667 870.4 682.666667 870.4z m-170.666667 85.333333a58.5728 58.5728 0 0 1-42.786133-17.800533c-11.246933-11.229867-16.9472-25.344-16.9472-41.9328 0-16.366933 5.563733-30.6176 16.554666-42.359467C481.365333 841.8304 495.633067 836.266667 512 836.266667c16.605867 0 30.72 5.700267 41.949867 16.964266A58.555733 58.555733 0 0 1 571.733333 896c0 16.571733-6.2976 31.214933-18.210133 42.3424C543.214933 949.435733 528.571733 955.733333 512 955.733333z m0-85.333333c-7.645867 0-13.704533 2.338133-19.063467 7.355733-4.1984 4.539733-6.536533 10.615467-6.536533 18.244267 0 7.406933 2.2016 13.073067 6.946133 17.800533 5.3248 5.307733 11.246933 7.799467 18.653867 7.799467 7.2704 0 12.629333-2.286933 17.390933-7.389867 5.922133-5.5808 8.209067-10.939733 8.209067-18.210133 0-7.406933-2.491733-13.329067-7.799467-18.653867C525.073067 872.6016 519.406933 870.4 512 870.4z m-169.813333-84.48c-16.5888 0-30.976-5.9904-42.786134-17.800533S281.6 741.922133 281.6 725.333333s5.9904-30.958933 17.800533-42.786133 26.197333-17.800533 42.786134-17.800533 30.976 5.9904 42.786133 17.800533S402.773333 708.744533 402.773333 725.333333s-5.9904 30.958933-17.800533 42.786134-26.2144 17.800533-42.786133 17.800533z m0-87.04c-7.406933 0-13.329067 2.491733-18.653867 7.799467s-7.799467 11.246933-7.799467 18.653866 2.474667 13.329067 7.799467 18.653867c10.6496 10.615467 26.658133 10.615467 37.307733 0 5.3248-5.3248 7.799467-11.246933 7.799467-18.653867s-2.474667-13.329067-7.799467-18.653866-11.246933-7.799467-18.653866-7.799467zM682.666667 785.066667a58.606933 58.606933 0 0 1-42.786134-17.800534c-11.246933-11.2128-16.9472-25.326933-16.9472-41.9328 0-16.384 5.563733-30.634667 16.554667-42.376533C652.032 671.163733 666.282667 665.6 682.666667 665.6c16.605867 0 30.72 5.700267 41.949866 16.964267A58.555733 58.555733 0 0 1 742.4 725.333333c0 16.571733-6.2976 31.214933-18.210133 42.3424C713.8816 778.769067 699.2384 785.066667 682.666667 785.066667z m0-85.333334c-7.645867 0-13.704533 2.338133-19.0464 7.355734-4.215467 4.539733-6.5536 10.5984-6.5536 18.244266 0 7.424 2.2016 13.073067 6.929066 17.783467 5.341867 5.3248 11.264 7.816533 18.670934 7.816533 7.2704 0 12.629333-2.286933 17.390933-7.389866 5.922133-5.5808 8.209067-10.939733 8.209067-18.210134 0-7.406933-2.491733-13.329067-7.799467-18.653866C695.739733 701.934933 690.090667 699.733333 682.666667 699.733333z m-170.666667 85.333334a58.5728 58.5728 0 0 1-42.786133-17.800534c-11.246933-11.229867-16.9472-25.344-16.9472-41.9328 0-16.366933 5.563733-30.6176 16.554666-42.359466C481.365333 671.163733 495.633067 665.6 512 665.6c16.605867 0 30.72 5.700267 41.949867 16.964267A58.555733 58.555733 0 0 1 571.733333 725.333333c0 16.571733-6.2976 31.214933-18.210133 42.3424C543.214933 778.769067 528.571733 785.066667 512 785.066667z m0-85.333334c-7.645867 0-13.704533 2.338133-19.063467 7.355734-4.1984 4.539733-6.536533 10.615467-6.536533 18.244266 0 7.406933 2.2016 13.073067 6.946133 17.800534 5.3248 5.307733 11.246933 7.799467 18.653867 7.799466 7.2704 0 12.629333-2.286933 17.390933-7.389866 5.922133-5.5808 8.209067-10.939733 8.209067-18.210134 0-7.406933-2.491733-13.329067-7.799467-18.653866C525.073067 701.934933 519.406933 699.733333 512 699.733333z m-169.813333-84.48c-16.5888 0-30.976-5.9904-42.786134-17.800533S281.6 571.255467 281.6 554.666667s5.9904-30.958933 17.800533-42.786134c11.810133-11.810133 26.197333-17.800533 42.786134-17.800533s30.976 5.9904 42.786133 17.800533c11.810133 11.810133 17.800533 26.197333 17.800533 42.786134s-5.9904 30.958933-17.800533 42.786133-26.2144 17.800533-42.786133 17.800533z m0-87.04c-7.406933 0-13.329067 2.491733-18.653867 7.799467s-7.799467 11.246933-7.799467 18.653867 2.474667 13.329067 7.799467 18.653866c10.6496 10.632533 26.658133 10.632533 37.307733 0 5.3248-5.3248 7.799467-11.246933 7.799467-18.653866s-2.474667-13.329067-7.799467-18.653867-11.246933-7.799467-18.653866-7.799467zM682.666667 614.4a58.606933 58.606933 0 0 1-42.786134-17.800533c-11.246933-11.2128-16.9472-25.326933-16.9472-41.9328 0-16.384 5.563733-30.634667 16.554667-42.376534C652.049067 500.497067 666.299733 494.933333 682.666667 494.933333c16.5888 0 30.702933 5.700267 41.9328 16.964267A58.5728 58.5728 0 0 1 742.4 554.666667c0 16.571733-6.2976 31.214933-18.210133 42.3424C713.8816 608.1024 699.2384 614.4 682.666667 614.4z m0-85.333333c-7.6288 0-13.704533 2.338133-19.063467 7.355733-4.1984 4.539733-6.536533 10.5984-6.536533 18.244267 0 7.424 2.2016 13.073067 6.929066 17.783466 5.341867 5.3248 11.264 7.816533 18.670934 7.816534 7.2704 0 12.629333-2.286933 17.390933-7.389867 5.922133-5.5808 8.209067-10.939733 8.209067-18.210133 0-7.406933-2.491733-13.329067-7.799467-18.653867C695.739733 531.268267 690.0736 529.066667 682.666667 529.066667z m-170.666667 85.333333a58.5728 58.5728 0 0 1-42.786133-17.800533c-11.246933-11.229867-16.9472-25.344-16.9472-41.9328 0-16.366933 5.563733-30.6176 16.554666-42.359467C481.3824 500.497067 495.633067 494.933333 512 494.933333c16.5888 0 30.702933 5.700267 41.9328 16.964267A58.5728 58.5728 0 0 1 571.733333 554.666667c0 16.571733-6.2976 31.214933-18.210133 42.3424C543.214933 608.1024 528.571733 614.4 512 614.4z m0-85.333333c-7.645867 0-13.704533 2.338133-19.063467 7.355733-4.1984 4.539733-6.536533 10.615467-6.536533 18.244267 0 7.406933 2.2016 13.073067 6.946133 17.800533 5.3248 5.307733 11.246933 7.799467 18.653867 7.799467 7.2704 0 12.629333-2.286933 17.390933-7.389867 5.922133-5.5808 8.209067-10.939733 8.209067-18.210133 0-7.406933-2.491733-13.329067-7.799467-18.653867C525.073067 531.268267 519.406933 529.066667 512 529.066667zM333.653333 356.693333h-187.733333c-45.568-2.116267-72.533333-28.228267-76.731733-73.5232L69.12 220.16c3.157333-43.946667 15.957333-79.086933 38.0928-105.642667 24.149333-28.091733 57.053867-43.844267 97.962667-47.0528L814.9504 68.266667c43.0592 2.56 76.885333 17.988267 101.512533 45.8752 22.8864 25.412267 36.096 60.125867 39.2192 103.082666L955.733333 279.04c-2.116267 47.684267-29.098667 74.666667-76.032 76.782933l-182.493866 0.017067c-45.124267-0.7168-72.8576-26.658133-78.404267-73.0624a16.213333 16.213333 0 0 1-0.119467-2.030933v-11.7248c-3.208533-24.354133-15.428267-35.6864-40.704-37.8368l-5.0176-0.785067h-131.2256c-23.466667 4.096-34.389333 15.36-36.471466 37.444267l0.068266 1.809066a16.5888 16.5888 0 0 1-0.6656 4.693334c0.512 1.774933 0.7168 3.618133 0.648534 5.495466-2.0992 44.578133-26.862933 71.8336-69.717334 76.7488a18.568533 18.568533 0 0 1-1.9456 0.1024zM206.4896 101.546667c-30.702933 2.4576-55.0912 13.9264-73.233067 35.0208-17.3056 20.770133-27.477333 49.373867-30.0544 84.821333L103.253333 281.6c2.56 26.948267 15.581867 39.662933 43.4688 40.977067L332.629333 322.56c24.712533-3.106133 36.352-15.496533 38.382934-41.1136-0.6656-2.9184-0.6656-5.4272-0.6656-6.673067 0-1.774933 0-4.829867 0.853333-8.174933V266.24c3.6864-39.799467 26.624-63.368533 66.4064-69.751467 0.904533-0.136533 1.792-0.221867 2.7136-0.221866h133.9904a15.189333 15.189333 0 0 1 2.781867 0.238933l5.137066 0.836267c40.055467 3.345067 65.553067 27.7504 70.485334 68.573866 0.085333 0.682667 0.119467 1.365333 0.119466 2.048v11.741867c3.720533 28.996267 17.117867 41.5744 44.6464 42.001067H878.933333c28.381867-1.297067 41.386667-14.2848 42.683734-43.4176L921.6 218.453333c-2.5088-33.962667-12.817067-61.832533-30.600533-81.595733-18.7904-21.248-43.963733-32.494933-77.1072-34.491733l-607.402667-0.8192z" p-id="2425" fill="#13227a"></path></svg>