<?xml version="1.0" standalone="no"?><!DOCTYPE svg PUBLIC "-//W3C//DTD SVG 1.1//EN" "http://www.w3.org/Graphics/SVG/1.1/DTD/svg11.dtd"><svg t="1589209461927" class="icon" viewBox="0 0 1024 1024" version="1.1" xmlns="http://www.w3.org/2000/svg" p-id="2414" xmlns:xlink="http://www.w3.org/1999/xlink" width="200" height="200"><defs><style type="text/css"></style></defs><path d="M512 0C228.96 0 0 228.96 0 512c0 283.04 228.96 512 512 512 283.04 0 512-228.96 512-512C1024 228.96 795.04 0 512 0z m0 903.52c-216.8 0-391.52-174.72-391.52-391.52 0-216.8 174.72-391.52 391.52-391.52 216.8 0 391.52 174.72 391.52 391.52 0 216.8-174.72 391.52-391.52 391.52z" fill="#FFFCFC" p-id="2415"></path><path d="M316.16 512c0 108.16 87.68 195.84 195.84 195.84S707.84 620.16 707.84 512 620.16 316.16 512 316.16 316.16 403.84 316.16 512z m0 0" fill="#FFFCFC" p-id="2416"></path></svg>