<?xml version="1.0" standalone="no"?><!DOCTYPE svg PUBLIC "-//W3C//DTD SVG 1.1//EN" "http://www.w3.org/Graphics/SVG/1.1/DTD/svg11.dtd"><svg t="1589291266257" class="icon" viewBox="0 0 1024 1024" version="1.1" xmlns="http://www.w3.org/2000/svg" p-id="31719" xmlns:xlink="http://www.w3.org/1999/xlink" width="200" height="200"><defs><style type="text/css"></style></defs><path d="M441.963 590.826l-18.525-18.42 20.337 16.596zM59.685 224.017h-1.562v-26.121zM785.849 958.03h26.119v6.795h-26.119zM785.849 586.07h26.119v3.393h-26.119z" p-id="31720" fill="#FF6633"></path><path d="M969.616 733.215c-1.093-8.364-3.036-16.857-5.615-24.895-19.457-66.872-69.868-117.291-131.575-131.59 0 0-22.445-3.731-33.62-2.58-11.783-1.193-38.135 2.593-38.135 2.593-36.782 8.648-69.539 29.718-94.586 60.788-14.027 16.916-24.953 36.098-32.551 57.167-69.819-23.798-134.538-63.252-187.854-114.622l-5.885-5.643C379.104 514.26 334.367 439.506 310.433 358.26l-3.692-12.551-12.532 3.711a115.797 115.797 0 0 1-11.188 2.689c0.25 1.547 5.835 25.526 6.038 25.486 25.711 80.124 70.71 153.779 130.586 213.623l11.728 11.306c58.645 55.376 129.996 97.201 206.677 121.127l12.757 3.979 3.673-12.854c6.504-22.682 17.167-43.063 31.831-60.699 21.148-26.251 48.392-44.046 78.903-51.555 0 0 23.776-2.01 31.772-1.431h0.001c0.337 0 0.653 0.03 0.961 0.074a6.56 6.56 0 0 1 0.929-0.074c0.188 0 0.368 0.014 0.546 0.026 0.181-0.014 0.358-0.026 0.546-0.026 0.272 0 0.532 0.02 0.785 0.048 7.307-1.047 27.188 1.383 27.188 1.383 51.855 12.61 94.305 55.812 111.088 113.436a127.827 127.827 0 0 1 4.821 21.377c1.937 10.407 2.907 21.289 2.907 32.361 0 92.851-62.849 173.497-144.48 174.684l-16.429 0.563c-190.884-1.389-370.447-75.992-506.182-210.399C169.195 625.148 98.15 471.135 78.356 302.435c-1.867-25.117-4.486-65.339-5.355-91.913l-0.692-12.625-24.242-0.48-1.448 13.629c1.355 210.731 79.585 408.314 214.684 542.067 141.931 140.569 330.195 217.979 530.03 217.979 3.066 0 5.813-0.025 8.85-0.322l11.785-1.146 4.6-0.751c89.837-8.699 156.313-96.962 156.313-199.175-0.001-12.671-1.124-25.165-3.265-36.483z" p-id="31721" fill="#FF6633"></path><path d="M305.994 38.896c-10.123-3.173-19.355-5.215-27.27-6.107-10.784-2.093-22.29-3.112-35.149-3.112-108.594 0-196.955 79.091-196.955 176.317 0 2.232 0.056 4.822 0.261 5.396 0.299 9.374 1.758 18.416 3.664 27.308 7.812-3.126 13.567-5.333 22.566-6.897-1.505-7.401-0.912-15.261-1.193-23.055-0.122-0.902 0.821-1.846 0.821-2.751 0-82.816 76.634-150.197 170.836-150.197 11.328 0 20.917 0.841 31.122 2.781 7.242 0.856 14.924 2.565 23.671 5.293 69.409 20.664 116.042 77.765 116.042 142.123 0 0.906 0.046 1.967-0.251 4.592-1.179 41.261-21.205 79.218-56.485 106.922-17.952 14.322-39.84 25.331-63.465 31.911a115.797 115.797 0 0 1-11.188 2.689c0.25 1.547 5.404 18.365 6.038 25.486 4.312-0.779 8.03-1.79 12.346-3.074 26.785-7.448 51.858-20.104 72.476-36.527 40.811-32.055 65.016-78.227 66.22-124.945 0.385-2.233 0.432-4.823 0.432-7.055-0.002-76.002-54.131-143.182-134.539-167.098z" p-id="31722" fill="#FF6633"></path></svg>