<?xml version="1.0" standalone="no"?><!DOCTYPE svg PUBLIC "-//W3C//DTD SVG 1.1//EN" "http://www.w3.org/Graphics/SVG/1.1/DTD/svg11.dtd"><svg t="1589291336803" class="icon" viewBox="0 0 1024 1024" version="1.1" xmlns="http://www.w3.org/2000/svg" p-id="31955" xmlns:xlink="http://www.w3.org/1999/xlink" width="200" height="200"><defs><style type="text/css"></style></defs><path d="M742.978628 570.700937c-75.244728 0-140.307559 43.089377-172.245969 105.83749C472.762347 626.843608 394.750599 543.565926 352.277252 441.61086c71.350025-28.453029 121.827673-98.026594 121.827673-179.529863 0-106.780978-86.583984-193.359846-193.359846-193.359846-93.109608 0-173.458587 65.811892-191.857633 153.443741-1.210571 14.271028-1.260713 43.840484-1.207501 45.826721 2.285043 354.605274 270.374894 645.963061 615.003955 685.131129 36.049031 3.89061 72.392774 2.039449 87.516216-1.774413 1.077541-0.211824 2.094708-0.488117 3.146667-0.804319 9.982352-2.996241 18.680455-11.438517 22.054295-16.762779 11.388375-17.974373 5.315052-41.905412-12.843516-52.973492 0 0-28.392654-11.286044-45.50438-0.053212 0 0-115.406426-14.047947-191.319373-39.597857 0.028653 0.053212-29.894867-12.409634-38.683021-16.762779-142.963039-65.438385-256.863159-183.151343-316.018443-329.501526-9.967002-21.062711-43.623543-101.129258-44.484144-222.442208 0 0-0.696872-5.395894-0.696872-8.219195 0-63.961754 51.872415-115.834168 115.833145-115.834168 63.98529 0 115.857704 51.872415 115.857704 115.834168 0 57.730842-42.334177 105.197924-97.56406 114.00552l0.023536 0.538259c-19.7406 1.664919-35.296901 18.028609-35.296901 38.20309l0.345877 3.596921 10.885931 34.614355c49.453319 131.144876 148.495032 237.896178 274.241968 297.532417-0.023536 0.433882 24.551162 11.500938 24.551162 11.500938 18.163685 11.06808 41.853224 5.315052 52.949956-12.843516 3.462868-5.695722 5.103228-11.923564 5.395894-18.158568 13.781888-48.352241 57.756425-84.028788 110.542652-84.028788 63.825654 0 115.565039 51.737338 115.565039 115.510804 0 12.790304-1.037632 24.445762-4.852518 35.941584l-0.74292 2.378164c-0.514723 0.696872 0.063445 1.11438-0.393973 1.86958-10.398838 17.086144-4.996804 39.328727 12.059664 49.694819l3.064802 1.50426c12.573363 7.629771 27.936259 6.608511 39.327704-1.236154l3.756557-3.678786c18.428721-31.359218 24.931832-52.734038 24.931832-87.11815C936.337451 657.255245 849.784166 570.700937 742.978628 570.700937z" p-id="31956" fill="#FF6633"></path></svg>