<?xml version="1.0" standalone="no"?><!DOCTYPE svg PUBLIC "-//W3C//DTD SVG 1.1//EN" "http://www.w3.org/Graphics/SVG/1.1/DTD/svg11.dtd"><svg t="1589291003114" class="icon" viewBox="0 0 1024 1024" version="1.1" xmlns="http://www.w3.org/2000/svg" p-id="28536" xmlns:xlink="http://www.w3.org/1999/xlink" width="200" height="200"><defs><style type="text/css"></style></defs><path d="M573.155556 675.555556h-122.311112c-11.757037 0-21.333333-9.576296-21.333333-21.333334s9.576296-21.333333 21.333333-21.333333h122.311112c11.757037 0 21.333333 9.576296 21.333333 21.333333s-9.576296 21.333333-21.333333 21.333334z" p-id="28537" fill="#FF6633"></path><path d="M874.666667 675.555556h-64.474074c-11.757037 0-21.333333-9.576296-21.333334-21.333334s9.576296-21.333333 21.333334-21.333333H853.333333V588.8c0-24.651852-16.687407-46.364444-40.485926-52.717037-0.474074-0.094815-0.948148-0.284444-1.422222-0.474074l-149.428148-51.38963c-3.223704-1.137778-6.162963-2.939259-8.533333-5.404444-0.18963-0.18963-21.807407-22.376296-59.164445-44.278519-49.493333-28.823704-101.925926-43.52-155.78074-43.52-133.878519 0-208.877037 74.998519-249.173334 115.294815-12.041481 12.136296-18.678519 28.254815-18.678518 45.321482v81.256296h43.14074c11.757037 0 21.333333 9.576296 21.333334 21.333333s-9.576296 21.333333-21.333334 21.333334h-64.474074c-11.757037 0-21.333333-9.576296-21.333333-21.333334V551.632593c0-28.444444 11.093333-55.277037 31.194074-75.377778 19.721481-19.721481 52.717037-52.717037 99.176296-79.739259 54.708148-31.857778 115.294815-47.976296 180.148149-47.976297 61.155556 0 122.974815 17.351111 178.631111 50.157037 32.900741 19.342222 54.802963 38.874074 63.241481 46.933334l144.118519 49.588148c42.097778 11.567407 71.395556 49.967407 71.395555 93.677037v65.422222c0.094815 11.662222-9.481481 21.238519-21.238518 21.238519z" p-id="28538" fill="#FF6633"></path><path d="M332.325926 751.407407C278.755556 751.407407 235.140741 707.792593 235.140741 654.222222s43.614815-97.185185 97.185185-97.185185S429.511111 600.651852 429.511111 654.222222s-43.614815 97.185185-97.185185 97.185185z m0-151.703703c-30.056296 0-54.518519 24.462222-54.518519 54.518518s24.462222 54.518519 54.518519 54.518519S386.844444 684.278519 386.844444 654.222222s-24.462222-54.518519-54.518518-54.518518zM691.674074 751.881481C638.103704 751.881481 594.488889 708.266667 594.488889 654.696296S638.103704 557.511111 691.674074 557.511111 788.859259 601.125926 788.859259 654.696296 745.244444 751.881481 691.674074 751.881481z m0-151.703703c-30.056296 0-54.518519 24.462222-54.518518 54.518518s24.462222 54.518519 54.518518 54.518519 54.518519-24.462222 54.518519-54.518519-24.462222-54.518519-54.518519-54.518518z" p-id="28539" fill="#FF6633"></path></svg>