<?xml version="1.0" standalone="no"?><!DOCTYPE svg PUBLIC "-//W3C//DTD SVG 1.1//EN" "http://www.w3.org/Graphics/SVG/1.1/DTD/svg11.dtd"><svg t="1589291117231" class="icon" viewBox="0 0 1024 1024" version="1.1" xmlns="http://www.w3.org/2000/svg" p-id="28784" xmlns:xlink="http://www.w3.org/1999/xlink" width="200" height="200"><defs><style type="text/css"></style></defs><path d="M794.9 960H229.1c-91.1-0.1-165-68.5-165.1-152.9V217c0.1-84.4 73.9-152.9 165.1-153h565.8c91.1 0.1 165 68.5 165.1 153v590.1c-0.2 84.4-74 152.8-165.1 152.9zM229.1 107.7c-65.1 0.1-117.8 49-117.9 109.3v590.1c0.1 60.3 52.9 109.1 117.9 109.2h565.8c65-0.1 117.8-48.9 117.9-109.2V217c-0.1-60.3-52.8-109.2-117.9-109.3H229.1z" fill="#FF6633" p-id="28785"></path><path d="M724.1 195.1H582.6c-52 0.1-94.2 39.2-94.2 87.4v131.1c0 48.3 42.2 87.4 94.2 87.5h141.5c52 0 94.3-39.2 94.4-87.5V282.5c-0.1-48.3-42.3-87.4-94.4-87.4z m47.2 218.5c0 24.2-21.1 43.8-47.2 43.8H582.6c-25.9 0-47.1-19.7-47.1-43.8V282.5c0-24.1 21.1-43.6 47.1-43.7h141.5c26 0 47.2 19.6 47.2 43.7v131.1z" fill="#FF6633" p-id="28786"></path><path d="M370.5 238.8H229.1c-13 0.6-24.1-8.7-24.8-20.8-0.7-12.1 9.4-22.3 22.4-23h143.9c13 0 23.6 9.8 23.6 21.9-0.1 12.1-10.7 21.9-23.7 21.9zM370.5 370H229.1c-13 0.6-24.1-8.7-24.8-20.7-0.7-12.1 9.4-22.3 22.4-23h143.9c13 0 23.6 9.8 23.6 21.9-0.1 12-10.7 21.8-23.7 21.8zM370.5 501.1H229.1c-13 0.6-24.1-8.7-24.8-20.7-0.7-12.1 9.4-22.3 22.4-22.9h143.9c13 0 23.6 9.8 23.6 21.8-0.1 12-10.7 21.8-23.7 21.8zM794.9 632.2H229.1c-13 0-23.6-9.8-23.6-21.9 0-12.1 10.5-21.9 23.6-21.9H795c13 0 23.6 9.8 23.6 21.9-0.1 12.1-10.6 21.9-23.7 21.9zM582.6 763.3H229.1c-13 0.6-24.1-8.7-24.8-20.7-0.7-12.1 9.4-22.3 22.4-22.9h356c13-0.6 24.1 8.7 24.8 20.7 0.7 12.1-9.4 22.3-22.4 22.9h-2.5z" fill="#FF6633" p-id="28787"></path></svg>